<svg width="111" height="110" viewBox="0 0 111 110" fill="none" xmlns="http://www.w3.org/2000/svg">
<path d="M74.4464 1L37.3287 109" stroke="#920000" stroke-width="2" stroke-linecap="round" stroke-linejoin="round" stroke-dasharray="4 4"/>
<path d="M93.2462 78.1842C78.9101 97.2683 51.7708 101.154 32.626 86.8636C13.4812 72.57 9.58577 45.5138 23.9219 26.4298C38.2581 7.34869 65.4003 3.46263 84.5451 17.7533C103.69 32.044 107.585 59.1001 93.2492 78.1812L93.2462 78.1842Z" fill="#39C1F1"/>
<path d="M58.5287 95.5849C49.4713 95.5849 40.342 92.7793 32.5481 86.9621C13.3824 72.6506 9.46598 45.4631 23.8201 26.3552C30.7726 17.0997 40.9259 11.0975 52.4115 9.45291C63.8942 7.80835 75.335 10.7214 84.62 17.6548C93.9049 24.5882 99.9292 34.7093 101.576 46.1556C103.226 57.6018 100.303 69.0033 93.348 78.2618L93.2462 78.1872L93.348 78.2618C84.8296 89.6036 71.757 95.5879 58.5287 95.5879V95.5849ZM58.6724 9.25592C56.6064 9.25592 54.5254 9.40217 52.4445 9.70064C41.0277 11.3333 30.9343 17.3026 24.0207 26.5044C9.75043 45.5019 13.6429 72.5312 32.7008 86.7592C40.4468 92.5405 49.5252 95.3312 58.5287 95.3312C71.6791 95.3312 84.6739 89.3797 93.1444 78.1066C100.058 68.9048 102.962 57.569 101.325 46.1884C99.6867 34.8078 93.6983 24.7464 84.4673 17.8548C76.9189 12.2197 67.9394 9.25592 58.6754 9.25592H58.6724Z" fill="#1A74B2"/>
<g style="mix-blend-mode:multiply">
<path d="M25.6555 79.3247C25.8771 79.8381 26.0777 80.3664 26.3172 80.8708C26.3891 81.0409 26.4759 81.205 26.5657 81.3662C26.7394 81.5543 26.9161 81.7483 27.0957 81.9333C27.7754 81.599 28.4491 81.2588 29.1258 80.9185C29.2725 80.5872 29.3893 80.25 29.4761 79.8978C29.6378 79.2381 29.7366 78.489 30.042 77.8741C30.569 76.8176 31.4014 75.8475 32.5841 75.4834C34.0422 75.0357 36.1531 74.8954 37.2909 73.7881C37.5574 73.5314 37.8598 73.221 38.2251 73.0987C40.0665 72.4838 42.0547 72.4629 43.947 71.9495C46.4651 71.2661 48.0819 70.0125 50.2288 68.6157C52.1151 67.386 55.0883 67.1621 56.3938 65.1803C58.1394 62.5299 55.4267 60.3003 54.226 58.0678C52.9894 55.7666 51.5612 53.1371 51.8666 50.43C52.148 47.9587 53.687 44.7262 52.7918 42.2907C52.3666 41.1327 51.633 41.5028 51.0372 40.7835C50.5941 40.2462 50.3216 39.6254 49.8964 39.0852C48.591 37.4317 46.1357 37.8137 44.3452 38.0764C43.6176 38.1838 41.1414 38.5838 41.1414 37.2198C41.1414 34.9723 43.417 30.7102 45.7854 33.3994C47.1777 34.9813 50.4863 34.9365 51.0132 32.5219C51.2288 31.5339 50.6869 30.9728 50.2108 30.2863C49.7377 29.6029 49.2646 28.9701 49.2766 28.1195C49.2886 27.2032 50.8037 27.2897 51.3336 27.436C52.678 27.812 55.1602 28.6895 55.4357 30.3072C55.6183 31.3758 55.4357 33.6292 56.4986 34.1933C58.7622 35.3902 59.5646 33.8829 61.1545 33.0352C62.963 32.0712 64.6637 33.477 66.0261 34.5365C68.098 36.1453 70.5443 37.0347 72.0474 39.2643C73.257 41.0611 74.7871 39.9776 76.2961 39.1121C77.2423 38.5688 78.1675 37.9898 79.0957 37.4138C80.1017 36.79 81.3293 36.3094 82.1797 35.4857C83.9912 33.7277 83.3863 30.5848 81.4461 29.1313C79.0328 27.3226 76.2302 26.1108 74.0714 23.932C73.3558 23.2126 72.6971 22.4277 72.6492 21.3592C72.5803 19.8191 73.1971 18.2043 71.8887 16.9836C71.6821 16.7896 71.739 16.4702 72.0114 16.3538C74.281 15.351 75.6314 16.9269 77.7752 17.4433C79.2634 17.7984 80.6796 17.0164 82.0719 16.0345C68.8376 7.50426 52.4265 7.05357 39.0485 13.784C39.9018 14.4854 41.1923 15.5092 41.1055 16.4822C41.0456 17.1657 40.827 17.6223 40.4588 18.2014C39.6234 19.5176 39.7881 20.1802 40.5156 21.3353C42.7044 24.8154 37.4855 28.9194 37.7849 32.4711C37.9047 33.8918 38.1892 37.8883 35.4615 36.8168C34.4045 36.402 33.5841 35.6349 32.632 35.0469C29.1946 32.9367 30.063 38.1987 30.4013 39.9388C31.1169 43.5891 28.7904 43.9353 25.7573 44.9441C24.0476 45.5142 25.1196 48.6153 24.6165 50.2181C23.844 52.6745 22.3589 54.3548 21.0774 56.5247C19.8708 58.5722 21.1732 59.0796 21.6493 60.7003C21.9367 61.6792 22.1314 62.6642 22.2362 63.682C22.4787 66.0429 23.0057 68.5321 22.8619 70.9079C22.7302 73.0449 24.2063 75.1551 24.9339 77.119C25.0058 77.316 25.3292 78.2204 25.6585 79.3157L25.6555 79.3247Z" fill="#84D1F6"/>
</g>
<g style="mix-blend-mode:multiply">
<path d="M99.4022 37.8853C97.2195 38.2882 95.2882 39.0792 95.5248 41.5147C95.6595 42.9145 96.3362 44.9262 94.9169 45.8514C94.3121 46.2454 93.2192 45.9857 92.6384 45.6932C90.4317 44.5859 88.7549 47.4303 87.692 48.9883C86.8656 50.1971 86.0212 51.3253 84.9733 52.3491C82.6109 54.6473 86.138 55.9695 88.204 55.9635C88.3896 55.9635 88.734 56.0471 88.6831 56.3127C88.5214 57.1753 88.183 57.7454 87.698 58.4766C86.4853 60.3122 88.3836 60.7808 89.743 61.2852C91.0634 61.7777 92.0515 62.2075 92.1803 63.6789C92.2881 64.9295 90.3628 65.5533 91.7581 67.1412C92.3569 67.8247 92.4587 68.2395 92.4947 69.1499C92.5635 70.8422 90.0544 71.6839 89.0184 72.4151C88.7669 72.5912 88.3417 72.6658 88.192 72.3196C87.4465 70.5736 86.5841 66.9114 84.0481 68.1978C83.3654 68.544 82.542 68.7887 81.9012 68.156C80.7215 66.9979 79.7634 63.0313 77.4579 64.5505C76.5147 65.1743 75.5865 65.9354 74.4966 66.2935C72.9037 66.8158 71.8138 66.5144 70.2958 65.9055C66.5321 64.3923 67.089 68.0814 66.1788 70.1169C65.7865 70.9974 65.2596 71.8958 65.029 72.836C64.6787 74.2716 66.3195 74.385 67.0411 74.8029C67.8226 75.2535 68.3975 75.7938 68.5142 76.716C68.7508 78.6173 69.1011 81.5244 66.8345 82.3213C66.059 82.5899 65.2177 82.6735 64.4571 82.966C62.5379 83.7032 62.8283 84.9179 62.8552 86.4043C62.8762 87.634 62.5918 88.422 61.6306 89.2069C61.0857 89.6487 60.2204 89.8069 59.5706 89.983C58.2532 90.3441 57.2471 90.9321 56.1722 91.7618C55.241 92.4871 54.1511 93.4362 52.9205 93.5825C50.5521 93.866 48.5191 92.4065 46.1058 93.0661C45.7914 93.1527 45.486 93.2512 45.1776 93.3497C62.3253 98.9191 81.8443 93.3706 93.2552 78.1815C102.271 66.1831 104.07 51.0328 99.4082 37.8823L99.4022 37.8853ZM96.8422 54.1936C95.6116 54.9995 93.9798 55.5009 92.5066 55.5337C92.2701 55.5397 91.9168 55.3875 92.0515 55.0831C92.4827 54.0951 93.1354 53.0087 94.2253 52.6535C95.2822 52.3133 96.2733 52.7043 97.1087 53.3698C97.3422 53.5579 97.2494 53.7937 97.0578 53.9399C97.0159 54.0384 96.941 54.128 96.8422 54.1906V54.1936Z" fill="#84D1F6"/>
</g>
<path d="M56.7591 27.8744C57.5346 28.7907 57.0196 30.1607 56.9058 31.1815C56.5495 34.3213 58.5466 32.2052 59.7413 31.7217C60.8521 31.271 61.1905 30.5368 62.5678 30.8263C63.9451 31.1188 65.1967 31.7306 66.4363 32.3843C68.131 33.2707 69.652 34.1005 71.0653 35.4078C73.275 37.4433 74.5984 38.8252 77.8262 36.7748C79.3891 35.7838 82.4941 33.7155 80.6586 31.3904C79.3861 29.7816 77.8172 29.0713 76.0057 28.2117C74.2092 27.3581 72.8229 26.4686 71.5923 24.8808C70.6641 23.6839 70.7808 21.9409 69.8826 20.6336C69.2418 19.6964 68.2118 18.5025 68.0711 17.3206C67.7657 14.7538 70.9455 14.4792 72.8199 14.6284C73.4606 14.6791 74.2571 15.1806 74.799 15.4999C76.8141 16.6789 78.3831 16.4222 80.3383 15.7059C80.5898 15.6133 80.8413 15.5178 81.0928 15.4313C68.4274 7.72781 53.0493 7.23832 40.2282 13.2047C40.2731 13.4614 40.4228 13.7061 40.7193 13.924C40.9229 14.0524 41.1055 14.1956 41.2702 14.3628C41.5636 14.7418 42.0577 15.3268 41.9559 15.8611C41.6504 17.4847 40.0366 19.6337 41.7403 21.1649C42.1954 21.5738 42.6265 22.0095 42.8122 22.6124C43.402 24.5167 41.1804 26.0806 40.6264 27.7341C39.5605 30.9039 38.5994 34.1273 38.252 37.4612C38.2071 37.888 37.6921 38.2253 37.273 38.1298C35.6321 37.7597 34.3866 36.8165 32.8625 36.1808C29.6917 34.8586 32.0241 40.6668 32.084 41.6159C32.3325 45.6751 29.1048 45.4065 26.1915 45.8333C26.5508 47.9315 26.5388 49.7134 25.5358 51.728C24.0147 54.7813 21.7721 57.5929 22.4607 61.2133C23.0835 64.4905 23.9997 67.5409 24.3051 70.8777C24.6555 74.6922 26.4909 77.5545 28.1287 80.7869C28.6767 78.9782 27.9491 76.277 29.6707 75.1578C31.7577 73.7968 34.2339 74.14 36.1741 72.382C37.0005 71.6329 38.3688 71.6179 39.3898 71.615C41.3301 71.609 43.0517 71.6627 44.7884 70.4808C47.8993 68.3646 50.4414 67.0663 53.9476 65.8306C60.4659 63.5354 49.085 55.7036 50.3905 51.2445C51.4235 47.7106 51.7229 42.5889 48.1658 40.1445C46.2854 38.8521 43.7703 39.7266 41.6295 38.9357C41.0336 39.2849 40.4438 39.5117 39.9647 39.3356C39.0066 38.9834 39.2371 37.7119 39.2551 36.9061C39.291 35.3511 39.4437 33.614 40.7402 32.5544C42.0996 31.4471 43.7584 30.8472 45.1566 29.7966C44.8872 28.9728 44.0578 27.567 44.3063 27.0268C44.8303 25.8866 45.7525 24.9882 46.531 24.0212C46.7825 23.7138 47.1897 23.5765 47.5729 23.7018C50.5432 24.6599 54.6542 25.3792 56.7651 27.8804L56.7591 27.8744Z" fill="#AAD24E"/>
<path d="M92.2671 77.5277C91.5934 76.507 91.1263 74.161 89.4376 74.5132C89.1711 74.5669 88.6232 74.5401 88.5214 74.2177C88.4196 74.1998 88.3178 74.1849 88.219 74.161C88.1621 74.1491 88.1261 74.1252 88.0782 74.1073C88.0303 74.1371 87.9794 74.1819 87.9315 74.2088C87.5872 74.4147 86.9883 74.3908 86.8326 73.9551C86.4015 72.7522 86.1889 71.5703 85.9045 70.3376C85.5661 68.8931 83.0989 69.8183 82.1468 70.0034C81.9312 70.0451 81.6437 69.9496 81.512 69.7705C80.4071 68.2663 78.4998 64.819 76.4219 66.7829C75.5416 67.6156 75.0266 67.7947 73.8289 67.9827C72.5594 68.1857 70.9515 67.8574 69.664 67.7648C67.9483 67.6425 65.9243 72.1583 67.9424 72.8537C69.8586 73.5133 71.4545 74.7609 71.7899 76.8413C72.0923 78.7186 72.7989 81.9898 71.6372 83.7001C71.3048 84.1866 70.8467 84.5865 70.2329 84.6761C68.2268 84.9745 66.5022 85.5028 65.7297 87.5772C64.7236 90.2694 64.5499 90.8693 61.96 92.4064C59.8401 93.6689 57.9238 94.3375 55.4267 94.3793C53.7769 94.4061 52.169 94.3852 50.7198 94.6718C66.2836 97.4654 82.8145 91.6363 92.9857 78.2082C92.7072 78.0441 92.4587 77.8202 92.2641 77.5277H92.2671Z" fill="#AAD24E"/>
<path d="M99.7974 39.0791C99.501 39.103 99.2136 39.1358 98.9321 39.1866C95.6565 39.7954 96.8991 43.6934 96.7673 45.9737C96.6955 47.1915 95.9379 50.2359 96.8122 51.2775C97.6027 52.2207 99.5998 54.1249 97.9291 55.3188C95.8062 56.838 93.0875 56.9544 90.8867 58.2855C90.8808 58.2915 90.8688 58.2915 90.8598 58.2975C90.5274 58.5064 90.2041 58.7243 89.8987 58.9601C89.4645 59.2973 89.0154 59.6107 89.704 60.0764C90.249 60.4435 90.8808 60.6255 91.5305 60.724C92.5126 60.8762 93.5097 60.8971 94.4947 61.0434C94.6834 61.0703 94.851 61.1747 94.9469 61.318C95.2403 61.3836 95.4379 61.5896 95.2822 61.9418C94.5516 63.6072 97.1326 64.5146 96.1236 66.1293C95.8301 66.5979 95.414 66.9889 95.0906 67.3799C94.9319 67.8574 94.7942 68.3409 94.6894 68.8334C94.7522 69.0125 94.851 69.2065 95.0127 69.4184C95.0277 69.4363 95.0487 69.4602 95.0636 69.4811C96.0876 69.8721 97.1536 70.5287 97.0667 71.7047C97.0518 71.8867 97.0248 72.0628 96.9829 72.2419C102.447 61.8015 103.262 49.8389 99.7974 39.0791Z" fill="#AAD24E"/>
<path d="M92.5455 52.5042C92.8629 51.7371 93.0875 50.8656 93.1384 49.9971C93.1743 49.8836 93.2013 49.7642 93.2492 49.6538C93.4857 49.0658 93.7193 48.445 93.7642 47.8123C93.839 46.8064 92.5755 46.4423 91.8359 46.8482C90.5903 47.5287 89.201 48.439 88.3297 49.5583C87.7069 50.3582 86.8955 51.3611 87.2219 52.4415C87.5273 53.4563 89.0663 53.8354 89.9466 53.9995C90.8388 54.1637 92.2102 53.319 92.5455 52.5012V52.5042Z" fill="#AAD24E"/>
<path d="M49.9623 32.3872C49.8575 31.3097 48.9592 30.3785 47.8244 30.6442C47.7166 30.6233 47.5909 30.6442 47.519 30.7218C47.4981 30.7427 47.4741 30.7695 47.4501 30.7904C47.2256 30.9247 47.0639 31.1247 46.9501 31.3545C46.5309 31.8798 46.1986 32.4887 46.3303 33.1602C46.51 34.0855 47.8603 34.563 48.6778 34.4198C49.585 34.2616 50.0431 33.208 49.9593 32.3842L49.9623 32.3872Z" fill="#AAD24E"/>
<g style="mix-blend-mode:overlay">
<path d="M57.0795 9.48584C57.0795 9.48584 21.7182 11.4647 17.1431 45.8333C17.1431 45.8333 24.2572 14.5986 57.0795 9.48584Z" fill="white"/>
</g>
<path d="M14.2555 17.9257C9.28744 18.4222 6.01999 19.8911 5.10905 22.3874C2.28741 30.1194 23.1434 44.7796 51.6921 55.1318C69.3728 61.5431 85.8576 64.7985 96.5165 64.5113M104.746 51.0001C107.961 54.4029 109.37 57.4739 108.493 59.8762C107.871 61.5809 106.15 62.8065 103.539 63.5705" stroke="#920000" stroke-width="2" stroke-linecap="round"/>
<path d="M95.5133 61.5L100.529 64L95.5133 67V61.5Z" fill="#920000"/>
</svg>
